<mxfile host="app.diagrams.net" modified="2024-04-04T15:37:01.936Z" agent="Mozilla/5.0 (Macintosh; Intel Mac OS X 10.15; rv:124.0) Gecko/20100101 Firefox/124.0" version="22.1.21" etag="cIGswiFueImtv25nwf37" type="github">
  <diagram name="Page-1" id="zbjK1gRBuJaeodGVaAXZ">
    <mxGraphModel>
      <root>
        <mxCell id="0" />
        <mxCell id="1" parent="0" />
      </root>
    </mxGraphModel>
  </diagram>
</mxfile>
